<svg xmlns="http://www.w3.org/2000/svg" width="1000" height="500">
  <rect x="0" y="0" width="1000" height="500" fill="white"/>
  <line x1="50" y1="450" x2="950" y2="450" stroke="black" stroke-width="1"/>
  <line x1="50" y1="50" x2="50" y2="450" stroke="black" stroke-width="1"/>
  <polyline fill="none" stroke="steelblue" stroke-width="2" points="50.00,93.81 50.90,50.00 51.80,229.52 52.70,350.37 53.60,339.10 54.50,323.71 55.41,400.06 56.31,371.73 57.21,414.56 58.11,421.36 59.01,399.42 59.91,429.45 60.81,426.70 61.71,403.29 62.61,421.46 63.51,437.47 64.41,416.54 65.32,433.97 66.22,431.00 67.12,433.41 68.02,426.69 68.92,443.24 69.82,443.95 70.72,439.54 71.62,441.31 72.52,443.27 73.42,444.00 74.32,442.92 75.23,435.00 76.13,444.07 77.03,437.64 77.93,445.04 78.83,441.01 79.73,442.01 80.63,442.87 81.53,440.02 82.43,444.77 83.33,440.42 84.23,446.88 85.14,442.11 86.04,443.04 86.94,443.24 87.84,444.05 88.74,443.37 89.64,448.67 90.54,444.10 91.44,444.64 92.34,448.33 93.24,448.90 94.14,445.36 95.05,444.64 95.95,449.10 96.85,446.05 97.75,449.26 98.65,447.29 99.55,446.72 100.45,446.98 101.35,445.92 102.25,447.88 103.15,449.39 104.05,447.20 104.95,446.56 105.86,449.62 106.76,448.33 107.66,446.98 108.56,447.78 109.46,449.72 110.36,448.39 111.26,449.74 112.16,448.16 113.06,449.55 113.96,448.81 114.86,448.60 115.77,447.73 116.67,449.81 117.57,448.63 118.47,449.05 119.37,449.12 120.27,447.98 121.17,449.85 122.07,448.89 122.97,449.29 123.87,449.86 124.77,448.22 125.68,449.00 126.58,448.36 127.48,448.41 128.38,448.97 129.28,448.55 130.18,449.15 131.08,449.05 131.98,449.61 132.88,448.68 133.78,449.22 134.68,449.60 135.59,448.80 136.49,449.04 137.39,449.10 138.29,449.59 139.19,449.88 140.09,449.31 140.99,448.94 141.89,448.99 142.79,449.36 143.69,448.97 144.59,449.26 145.50,449.82 146.40,449.87 147.30,449.40 148.20,449.08 149.10,449.14 150.00,449.84 150.90,449.86 151.80,449.82 152.70,449.55 153.60,449.18 154.50,449.84 155.41,449.32 156.31,449.46 157.21,449.42 158.11,449.26 159.01,449.84 159.91,449.87 160.81,449.47 161.71,449.49 162.61,449.89 163.51,449.90 164.41,449.50 165.32,449.82 166.22,449.52 167.12,449.87 168.02,449.82 168.92,449.92 169.82,449.35 170.72,449.81 171.62,449.55 172.52,449.39 173.42,449.38 174.32,449.94 175.23,449.53 176.13,449.53 177.03,449.42 177.93,449.61 178.83,449.63 179.73,449.88 180.63,449.49 181.53,449.45 182.43,449.89 183.33,449.46 184.23,449.54 185.14,449.47 186.04,449.60 186.94,449.88 187.84,449.61 188.74,449.44 189.64,449.89 190.54,449.89 191.44,449.96 192.34,449.89 193.24,449.48 194.14,449.77 195.05,449.67 195.95,449.69 196.85,449.76 197.75,449.54 198.65,449.97 199.55,449.57 200.45,449.45 201.35,449.46 202.25,449.90 203.15,449.56 204.05,449.52 204.95,449.54 205.86,449.61 206.76,449.98 207.66,449.74 208.56,449.90 209.46,449.64 210.36,449.40 211.26,449.57 212.16,449.57 213.06,449.41 213.96,449.64 214.86,449.66 215.77,449.48 216.67,449.68 217.57,449.76 218.47,449.70 219.37,449.57 220.27,449.57 221.17,449.99 222.07,449.70 222.97,449.58 223.87,449.58 224.77,449.89 225.68,449.89 226.58,449.90 227.48,449.58 228.38,449.58 229.28,449.71 230.18,449.76 231.08,449.40 231.98,449.73 232.88,449.90 233.78,449.58 234.68,449.43 235.59,449.68 236.49,449.98 237.39,449.69 238.29,449.99 239.19,449.90 240.09,449.73 240.99,449.74 241.89,449.44 242.79,449.45 243.69,449.58 244.59,449.58 245.50,449.69 246.40,449.49 247.30,449.70 248.20,449.98 249.10,449.71 250.00,449.75 250.90,449.76 251.80,449.71 252.70,449.89 253.60,449.71 254.50,449.75 255.41,449.45 256.31,449.72 257.21,449.46 258.11,449.98 259.01,449.77 259.91,449.50 260.81,449.48 261.71,449.51 262.61,449.78 263.51,449.50 264.41,449.71 265.32,449.80 266.22,449.51 267.12,449.97 268.02,449.71 268.92,449.60 269.82,449.73 270.72,449.74 271.62,449.98 272.52,449.79 273.42,449.72 274.32,449.98 275.23,449.49 276.13,449.80 277.03,449.74 277.93,449.51 278.83,449.73 279.73,449.50 280.63,449.74 281.53,449.60 282.43,449.98 283.33,449.88 284.23,449.98 285.14,449.98 286.04,449.60 286.94,449.60 287.84,449.52 288.74,449.50 289.64,449.75 290.54,449.79 291.44,449.73 292.34,449.80 293.24,449.74 294.14,449.76 295.05,449.60 295.95,449.60 296.85,449.80 297.75,449.88 298.65,449.89 299.55,449.62 300.45,449.53 301.35,449.76 302.25,449.89 303.15,449.60 304.05,449.77 304.95,449.75 305.86,449.98 306.76,449.50 307.66,449.51 308.56,449.74 309.46,449.89 310.36,449.77 311.26,449.53 312.16,449.78 313.06,449.75 313.96,449.54 314.86,449.79 315.77,449.60 316.67,449.64 317.57,449.60 318.47,449.50 319.37,449.79 320.27,449.52 321.17,449.54 322.07,449.55 322.97,449.70 323.87,449.52 324.77,449.80 325.68,449.75 326.58,449.78 327.48,449.71 328.38,449.88 329.28,449.76 330.18,449.76 331.08,449.97 331.98,449.55 332.88,449.88 333.78,449.89 334.68,449.65 335.59,449.55 336.49,449.52 337.39,449.61 338.29,449.53 339.19,449.56 340.09,449.56 340.99,449.78 341.89,449.97 342.79,449.56 343.69,449.77 344.59,449.73 345.50,449.61 346.40,449.67 347.30,449.57 348.20,449.74 349.10,449.75 350.00,449.78 350.90,449.78 351.80,449.68 352.70,449.97 353.60,449.57 354.50,449.97 355.41,449.88 356.31,449.97 357.21,449.76 358.11,449.68 359.01,449.77 359.91,449.69 360.81,449.88 361.71,449.88 362.61,449.77 363.51,449.77 364.41,449.61 365.32,449.81 366.22,449.61 367.12,449.78 368.02,449.69 368.92,449.69 369.82,449.61 370.72,449.79 371.62,449.88 372.52,449.80 373.42,449.70 374.32,449.61 375.23,449.88 376.13,449.53 377.03,449.70 377.93,449.89 378.83,449.81 379.73,449.96 380.63,449.54 381.53,449.82 382.43,449.62 383.33,449.77 384.23,449.75 385.14,449.70 386.04,449.96 386.94,449.62 387.84,449.55 388.74,449.78 389.64,449.79 390.54,449.55 391.44,449.58 392.34,449.58 393.24,449.77 394.14,449.89 395.05,449.89 395.95,449.96 396.85,449.89 397.75,449.79 398.65,449.77 399.55,449.82 400.45,449.97 401.35,449.70 402.25,449.80 403.15,449.78 404.05,449.58 404.95,449.55 405.86,449.89 406.76,449.80 407.66,449.82 408.56,449.97 409.46,449.83 410.36,449.57 411.26,449.75 412.16,449.80 413.06,449.58 413.96,449.71 414.86,449.78 415.77,449.81 416.67,449.77 417.57,449.62 418.47,449.77 419.37,449.82 420.27,449.78 421.17,449.56 422.07,449.77 422.97,449.58 423.87,449.71 424.77,449.83 425.68,449.89 426.58,449.97 427.48,449.62 428.38,449.78 429.28,449.72 430.18,449.83 431.08,449.78 431.98,449.78 432.88,449.56 433.78,449.84 434.68,449.80 435.59,449.62 436.49,449.89 437.39,449.59 438.29,449.57 439.19,449.96 440.09,449.62 440.99,449.89 441.89,449.72 442.79,449.90 443.69,449.62 444.59,449.90 445.50,449.97 446.40,449.62 447.30,449.78 448.20,449.72 449.10,449.84 450.00,449.59 450.90,449.77 451.80,449.85 452.70,449.72 453.60,449.59 454.50,449.90 455.41,449.96 456.31,449.59 457.21,449.97 458.11,449.59 459.01,449.90 459.91,449.80 460.81,449.59 461.71,449.85 462.61,449.60 463.51,449.80 464.41,449.90 465.32,449.62 466.22,449.97 467.12,449.86 468.02,449.80 468.92,449.86 469.82,449.87 470.72,449.80 471.62,449.78 472.52,449.81 473.42,449.62 474.32,449.97 475.23,449.59 476.13,449.77 477.03,449.81 477.93,449.59 478.83,449.78 479.73,449.62 480.63,449.60 481.53,449.78 482.43,449.90 483.33,449.78 484.23,449.86 485.14,449.86 486.04,449.60 486.94,449.78 487.84,449.60 488.74,449.97 489.64,449.78 490.54,449.62 491.44,449.63 492.34,449.73 493.24,449.97 494.14,449.79 495.05,449.63 495.95,449.63 496.85,449.79 497.75,449.82 498.65,449.73 499.55,449.82 500.45,449.63 501.35,449.63 502.25,449.63 503.15,449.73 504.05,449.80 504.95,449.60 505.86,449.82 506.76,449.60 507.66,449.79 508.56,449.81 509.46,449.63 510.36,449.81 511.26,449.82 512.16,449.97 513.06,449.74 513.96,449.57 514.86,449.97 515.77,449.85 516.67,449.74 517.57,449.59 518.47,449.86 519.37,449.86 520.27,449.61 521.17,449.82 522.07,449.87 522.97,449.90 523.87,449.97 524.77,449.63 525.68,449.87 526.58,449.63 527.48,449.97 528.38,449.74 529.28,449.61 530.18,449.61 531.08,449.97 531.98,449.64 532.88,449.81 533.78,449.90 534.68,449.80 535.59,449.82 536.49,449.90 537.39,449.87 538.29,449.88 539.19,449.88 540.09,449.82 540.99,449.80 541.89,449.83 542.79,449.63 543.69,449.74 544.59,449.61 545.50,449.88 546.40,449.82 547.30,449.91 548.20,449.83 549.10,449.61 550.00,449.63 550.90,449.81 551.80,449.61 552.70,449.61 553.60,449.62 554.50,449.74 555.41,449.91 556.31,449.74 557.21,449.79 558.11,449.91 559.01,449.75 559.91,449.97 560.81,449.97 561.71,449.83 562.61,449.83 563.51,449.79 564.41,449.62 565.32,449.62 566.22,449.97 567.12,449.81 568.02,449.63 568.92,449.81 569.82,449.84 570.72,449.61 571.62,449.79 572.52,449.75 573.42,449.88 574.32,449.88 575.23,449.81 576.13,449.91 577.03,449.84 577.93,449.75 578.83,449.88 579.73,449.63 580.63,449.61 581.53,449.97 582.43,449.62 583.33,449.81 584.23,449.84 585.14,449.91 586.04,449.79 586.94,449.61 587.84,449.98 588.74,449.98 589.64,449.75 590.54,449.88 591.44,449.98 592.34,449.92 593.24,449.75 594.14,449.61 595.05,449.89 595.95,449.63 596.85,449.89 597.75,449.98 598.65,449.89 599.55,449.83 600.45,449.61 601.35,449.79 602.25,449.62 603.15,449.64 604.05,449.81 604.95,449.79 605.86,449.62 606.76,449.89 607.66,449.98 608.56,449.62 609.46,449.91 610.36,449.82 611.26,449.82 612.16,449.92 613.06,449.75 613.96,449.76 614.86,449.63 615.77,449.76 616.67,449.92 617.57,449.90 618.47,449.90 619.37,449.79 620.27,449.90 621.17,449.91 622.07,449.97 622.97,449.79 623.87,449.92 624.77,449.62 625.68,449.98 626.58,449.64 627.48,449.83 628.38,449.98 629.28,449.76 630.18,449.92 631.08,449.92 631.98,449.76 632.88,449.84 633.78,449.82 634.68,449.90 635.59,449.64 636.49,449.90 637.39,449.62 638.29,449.91 639.19,449.92 640.09,449.98 640.99,449.64 641.89,449.98 642.79,449.91 643.69,449.62 644.59,449.92 645.50,449.83 646.40,449.92 647.30,449.93 648.20,449.64 649.10,449.83 650.00,449.76 650.90,449.91 651.80,449.98 652.70,449.65 653.60,449.98 654.50,449.62 655.41,449.93 656.31,449.78 657.21,449.78 658.11,449.62 659.01,449.64 659.91,449.93 660.81,449.93 661.71,449.84 662.61,449.76 663.51,449.63 664.41,449.63 665.32,449.84 666.22,449.79 667.12,449.93 668.02,449.91 668.92,449.65 669.82,449.81 670.72,449.84 671.62,449.65 672.52,449.79 673.42,449.79 674.32,449.77 675.23,449.63 676.13,449.79 677.03,449.64 677.93,449.79 678.83,449.64 679.73,449.65 680.63,449.98 681.53,449.63 682.43,449.93 683.33,449.66 684.23,449.64 685.14,449.64 686.04,449.79 686.94,449.64 687.84,449.64 688.74,449.64 689.64,449.80 690.54,449.66 691.44,449.93 692.34,449.92 693.24,449.79 694.14,449.97 695.05,449.83 695.95,449.98 696.85,449.98 697.75,449.84 698.65,449.66 699.55,449.67 700.45,449.64 701.35,449.84 702.25,449.67 703.15,449.79 704.05,449.67 704.95,449.81 705.86,449.77 706.76,449.77 707.66,449.84 708.56,449.64 709.46,449.81 710.36,449.64 711.26,449.78 712.16,449.82 713.06,449.67 713.96,449.67 714.86,449.68 715.77,449.79 716.67,449.92 717.57,449.64 718.47,449.93 719.37,449.68 720.27,449.84 721.17,449.78 722.07,449.93 722.97,449.93 723.87,449.81 724.77,449.82 725.68,449.79 726.58,449.94 727.48,449.64 728.38,449.64 729.28,449.85 730.18,449.64 731.08,449.97 731.98,449.79 732.88,449.79 733.78,449.82 734.68,449.67 735.59,449.94 736.49,449.94 737.39,449.98 738.29,449.64 739.19,449.82 740.09,449.64 740.99,449.83 741.89,449.94 742.79,449.83 743.69,449.79 744.59,449.84 745.50,449.98 746.40,449.77 747.30,449.84 748.20,449.67 749.10,449.84 750.00,449.86 750.90,449.95 751.80,449.91 752.70,449.79 753.60,449.67 754.50,449.79 755.41,449.64 756.31,449.95 757.21,449.95 758.11,449.77 759.01,449.86 759.91,449.64 760.81,449.98 761.71,449.95 762.61,449.79 763.51,449.77 764.41,449.78 765.32,449.91 766.22,449.67 767.12,449.64 768.02,449.98 768.92,449.86 769.82,449.91 770.72,449.64 771.62,449.78 772.52,449.64 773.42,449.98 774.32,449.95 775.23,449.95 776.13,449.96 777.03,449.64 777.93,449.96 778.83,449.86 779.73,449.79 780.63,449.87 781.53,449.96 782.43,449.64 783.33,449.87 784.23,449.91 785.14,449.96 786.04,449.79 786.94,449.68 787.84,449.64 788.74,449.84 789.64,449.84 790.54,449.79 791.44,449.84 792.34,449.85 793.24,449.64 794.14,449.67 795.05,449.85 795.95,449.68 796.85,449.64 797.75,449.99 798.65,449.99 799.55,449.85 800.45,449.87 801.35,449.91 802.25,449.64 803.15,449.87 804.05,449.85 804.95,449.99 805.86,449.97 806.76,449.67 807.66,449.91 808.56,449.68 809.46,449.88 810.36,449.64 811.26,449.85 812.16,449.64 813.06,449.91 813.96,449.85 814.86,450.00 815.77,449.64 816.67,449.77 817.57,450.00 818.47,449.64 819.37,449.64 820.27,449.64 821.17,449.68 822.07,449.77 822.97,449.79 823.87,449.64 824.77,449.78 825.68,449.69 826.58,449.92 827.48,449.87 828.38,449.99 829.28,449.65 830.18,449.87 831.08,449.65 831.98,449.92 832.88,449.64 833.78,449.96 834.68,449.78 835.59,449.92 836.49,449.79 837.39,449.64 838.29,449.65 839.19,449.87 840.09,449.92 840.99,449.78 841.89,449.79 842.79,449.96 843.69,449.65 844.59,449.84 845.50,449.93 846.40,449.96 847.30,449.79 848.20,449.87 849.10,449.99 850.00,449.85 850.90,449.65 851.80,449.99 852.70,449.99 853.60,449.65 854.50,449.85 855.41,449.78 856.31,449.87 857.21,449.69 858.11,449.79 859.01,450.00 859.91,449.65 860.81,450.00 861.71,449.65 862.61,449.69 863.51,449.85 864.41,449.64 865.32,449.78 866.22,449.87 867.12,449.97 868.02,449.78 868.92,449.79 869.82,449.65 870.72,449.79 871.62,449.79 872.52,449.92 873.42,449.92 874.32,449.65 875.23,449.96 876.13,449.85 877.03,449.79 877.93,449.93 878.83,449.87 879.73,449.65 880.63,449.99 881.53,449.85 882.43,449.65 883.33,449.69 884.23,450.00 885.14,449.65 886.04,449.65 886.94,449.87 887.84,449.97 888.74,449.97 889.64,449.65 890.54,449.79 891.44,449.88 892.34,449.79 893.24,449.97 894.14,449.92 895.05,449.97 895.95,449.79 896.85,449.88 897.75,449.65 898.65,449.97 899.55,449.65 900.45,449.88 901.35,449.85 902.25,449.79 903.15,449.89 904.05,450.00 904.95,449.65 905.86,449.65 906.76,449.65 907.66,449.86 908.56,449.89 909.46,449.98 910.36,449.65 911.26,449.79 912.16,449.69 913.06,450.00 913.96,449.92 914.86,449.79 915.77,449.89 916.67,449.69 917.57,449.92 918.47,449.92 919.37,449.65 920.27,449.65 921.17,449.79 922.07,449.85 922.97,449.98 923.87,449.98 924.77,449.93 925.68,449.65 926.58,449.79 927.48,449.98 928.38,449.66 929.28,449.79 930.18,449.80 931.08,449.70 931.98,449.85 932.88,449.79 933.78,449.88 934.68,449.98 935.59,449.98 936.49,449.70 937.39,449.79 938.29,449.65 939.19,449.66 940.09,449.93 940.99,449.66 941.89,449.71 942.79,449.66 943.69,449.71 944.59,449.66 945.50,449.66 946.40,449.99 947.30,449.84 948.20,449.85 949.10,449.66 950.00,449.79"/>
  <text x="500.0" y="25" text-anchor="middle" font-size="20">Training Loss</text>
  <text x="500.0" y="490" text-anchor="middle" font-size="14">Iteration</text>
  <text x="18" y="250.0" text-anchor="middle" font-size="14" transform="rotate(-90 18 250.0)">Loss</text>
  <text x="50" y="470" font-size="12">0</text>
  <text x="910" y="470" font-size="12">999</text>
  <text x="10" y="55" font-size="12">37.532</text>
  <text x="10" y="455" font-size="12">0.065</text>
</svg>
